# xmcd
#
# Track frame offsets:
#	150
#	19714
#	35819
#	56618
#	76261
#	92998
#	109896
#	128251
#	148163
#	166598
#	187876
#	207138
#
# Disc length: 3065 seconds
#
# Revision: 1
# Processed by: cddbd v1.5.2PL0 Copyright (c) Steve Scherf et al.
# Submitted via: EZCDAudioConverter 8.0.2.1
#
DISCID=970bf70c
DTITLE=Phương Vy - Vol 02. Có Đôi Lần
DYEAR=2009
DGENRE=World Pop
TTITLE0=Biết sẽ ra sao
TTITLE1=Đừng buồn phiền
TTITLE2=Có đôi lần
TTITLE3=Nếu phải cách xa
TTITLE4=Đừng nói và đừng hứa
TTITLE5=Bao lời yêu (Secret Crush)
TTITLE6=Có một chút
TTITLE7=Giấc mơ sẽ về
TTITLE8=Giận anh
TTITLE9=Can Someone Heal My Heart
TTITLE10=Secret Crush (Bonus Track)
TTITLE11=Tình yêu chấp cánh
EXTD=
EXTT0=
EXTT1=
EXTT2=
EXTT3=
EXTT4=
EXTT5=
EXTT6=
EXTT7=
EXTT8=
EXTT9=
EXTT10=
EXTT11=
PLAYORDER=
